<svg width="77" height="28" viewBox="0 0 77 28" fill="none" xmlns="http://www.w3.org/2000/svg">
<g clip-path="url(#clip0_3008_2882)">
<path d="M22.0532 25.2978V22.8502H6.44851L20.2322 5.55324C20.4196 5.30146 20.8177 4.83888 20.9993 4.64565L21.0871 4.53439C21.7699 3.54464 22.1055 2.35654 22.0415 1.15581V0.5H0.622355V5.09066H15.4834L0.803874 23.2776C0.230916 24.0588 -0.0507921 25.0158 0.00753473 25.9828V27.1539H20.2146C20.4574 27.1532 20.6975 27.1045 20.9214 27.0107C21.1453 26.917 21.3484 26.7799 21.5192 26.6075C21.69 26.4351 21.8251 26.2306 21.9168 26.0059C22.0084 25.7811 22.0548 25.5405 22.0532 25.2978Z" fill="#0068FF"/>
<path d="M49.2929 27.1364H52.3553V0.5H47.7646V25.6081C47.7646 26.0134 47.9257 26.4021 48.2123 26.6888C48.4989 26.9754 48.8876 27.1364 49.2929 27.1364Z" fill="#0068FF"/>
<path d="M39.8246 8.41661C38.2641 7.27375 36.4176 6.5855 34.4898 6.42823C32.562 6.27095 30.6283 6.65079 28.9032 7.52561C27.1781 8.40043 25.7291 9.73603 24.717 11.3843C23.7048 13.0325 23.1689 14.9289 23.1689 16.8631C23.1689 18.7973 23.7048 20.6937 24.717 22.3419C25.7291 23.9901 27.1781 25.3257 28.9032 26.2005C30.6283 27.0754 32.562 27.4552 34.4898 27.2979C36.4176 27.1406 38.2641 26.4524 39.8246 25.3095C39.8277 25.7941 40.0219 26.2579 40.3651 26.6C40.7083 26.9421 41.1727 27.1349 41.6573 27.1364H44.1166V6.98203H39.8246V8.41661ZM33.6295 23.0201C32.4095 23.0212 31.2166 22.66 30.202 21.9823C29.1875 21.3046 28.3971 20.3408 27.931 19.2133C27.465 18.0858 27.3442 16.8453 27.5841 15.649C27.824 14.4528 28.4137 13.3547 29.2784 12.4941C30.1432 11.6334 31.2441 11.0489 32.4415 10.8148C33.6388 10.5806 34.8788 10.7073 36.0041 11.1787C37.1293 11.6502 38.0893 12.4452 38.7622 13.4629C39.435 14.4806 39.7905 15.6752 39.7836 16.8953C39.7743 18.5219 39.122 20.0788 37.9691 21.2262C36.8162 22.3737 35.2562 23.0185 33.6295 23.0201Z" fill="#0068FF"/>
<path d="M65.9338 6.27344C63.8493 6.27344 61.8115 6.89159 60.0782 8.04971C58.345 9.20784 56.9941 10.8539 56.1963 12.7798C55.3986 14.7057 55.1899 16.8249 55.5966 18.8694C56.0032 20.9139 57.0071 22.792 58.4811 24.266C59.9551 25.74 61.8331 26.7438 63.8776 27.1505C65.9221 27.5572 68.0413 27.3484 69.9672 26.5507C71.8931 25.753 73.5392 24.4021 74.6973 22.6688C75.8555 20.9355 76.4736 18.8978 76.4736 16.8132C76.4736 14.0179 75.3632 11.3371 73.3866 9.36047C71.41 7.38388 68.7292 6.27344 65.9338 6.27344ZM65.9338 23.0083C64.7072 23.0094 63.5077 22.6467 62.4872 21.9661C61.4667 21.2854 60.671 20.3174 60.2008 19.1844C59.7305 18.0514 59.6069 16.8045 59.8455 15.6012C60.0841 14.398 60.6742 13.2925 61.5412 12.4247C62.4082 11.5569 63.5131 10.9658 64.7161 10.726C65.9191 10.4863 67.1662 10.6088 68.2996 11.0779C69.433 11.5471 70.4018 12.3419 71.0834 13.3617C71.7651 14.3816 72.1289 15.5807 72.1289 16.8074C72.1289 18.4509 71.4764 20.0273 70.3148 21.19C69.1531 22.3527 67.5774 23.0067 65.9338 23.0083Z" fill="#0068FF"/>
</g>
<defs>
<clipPath id="clip0_3008_2882">
<rect width="77" height="27" fill="white" transform="translate(0 0.5)"/>
</clipPath>
</defs>
</svg>
